<svg xmlns="http://www.w3.org/2000/svg" viewBox="0 0 32 32" role="img" aria-label="WhatsApp">
  <circle cx="16" cy="16" r="16" fill="#25d366"/>
  <path fill="#fff" d="M16.08 6.52a9.46 9.46 0 0 0-8.2 14.18L6.6 25.48l4.9-1.28a9.46 9.46 0 1 0 4.58-17.68Zm0 1.82a7.64 7.64 0 1 1-3.85 14.24l-.32-.19-2.9.76.78-2.83-.21-.34a7.64 7.64 0 0 1 6.5-11.64Z"/>
  <path fill="#fff" d="M12.73 11.7c-.17-.38-.35-.39-.51-.4h-.44c-.15 0-.4.06-.61.29-.21.23-.8.78-.8 1.91s.82 2.22.94 2.37c.12.15 1.59 2.55 3.92 3.47 1.94.76 2.33.61 2.75.57.42-.04 1.36-.56 1.55-1.09.19-.53.19-.99.13-1.09-.06-.1-.22-.16-.46-.28l-1.63-.8c-.24-.12-.42-.18-.59.12-.17.3-.68.88-.84 1.06-.15.18-.31.2-.57.07-.27-.13-1.12-.41-2.13-1.31-.79-.7-1.32-1.57-1.47-1.84-.15-.27-.02-.42.11-.55.12-.12.27-.31.4-.46.13-.15.18-.27.27-.45.09-.18.05-.34-.02-.47l-.72-1.72Z"/>
</svg>
